<?xml version="1.0" standalone="no"?>
<!DOCTYPE svg PUBLIC "-//W3C//DTD SVG 20010904//EN"
 "http://www.w3.org/TR/2001/REC-SVG-20010904/DTD/svg10.dtd">
<svg version="1.0" xmlns="http://www.w3.org/2000/svg"
 width="920.000000pt" height="322.000000pt" viewBox="0 0 920.000000 322.000000"
 preserveAspectRatio="xMidYMid meet">

<g transform="translate(0.000000,322.000000) scale(0.100000,-0.100000)"
fill="#000000" stroke="none">
<path d="M780 2680 l0 -290 25 0 c18 0 25 -5 25 -20 0 -20 7 -20 280 -20 l280
0 0 -477 0 -478 -22 34 c-36 52 -185 238 -257 319 l-65 74 24 19 25 19 -25 0
c-18 0 -21 3 -11 9 7 5 12 14 10 20 -3 7 -16 5 -39 -8 l-35 -18 -63 45 c-49
34 -75 46 -112 50 -59 5 -65 -3 -73 -103 -6 -67 6 -359 18 -456 l6 -45 -120
-12 c-235 -23 -421 -70 -421 -107 0 -38 134 -153 358 -305 70 -47 91 -67 86
-79 -66 -161 -146 -467 -142 -542 3 -54 3 -54 38 -57 20 -2 61 7 101 23 72 28
267 137 384 214 l73 48 168 -109 c180 -117 303 -182 332 -176 27 6 20 146 -15
286 l-29 112 218 0 218 0 0 845 0 845 345 0 345 0 0 290 0 290 -30 0 c-25 0
-30 4 -30 25 l0 25 -935 0 -935 0 0 -290z m359 -1045 c53 -48 83 -120 79 -192
-3 -47 -7 -59 -29 -76 -21 -15 -31 -17 -45 -8 -11 6 -13 11 -6 11 22 0 52 39
52 68 0 38 -19 57 -35 35 -15 -20 -35 -9 -35 18 0 11 -4 18 -9 14 -5 -3 -7
-21 -4 -40 14 -85 -21 -136 -83 -121 l-27 7 30 19 c35 21 49 61 32 93 -8 13
-14 17 -17 9 -7 -21 -42 -14 -42 8 0 11 -3 20 -6 20 -16 0 -46 -24 -54 -43 -8
-21 -8 -21 -20 8 -19 49 -24 122 -10 155 15 37 51 48 84 27 22 -15 25 -15 41
3 27 29 60 24 104 -15z"/>
<path d="M2950 2303 l-245 -667 -3 287 -2 287 -25 0 c-20 0 -25 5 -25 25 l0
25 -285 0 -285 0 0 -780 0 -780 25 0 c20 0 25 -5 25 -25 l0 -25 446 2 446 3
193 517 192 517 214 221 c118 121 231 234 252 252 38 30 39 30 33 7 -18 -66
-259 -530 -419 -809 -257 -447 -287 -502 -287 -528 0 -31 39 -65 123 -107 77
-39 116 -44 140 -17 8 9 90 129 182 266 176 264 311 449 443 607 84 100 282
303 289 296 2 -3 -52 -121 -120 -263 -245 -512 -257 -547 -201 -613 39 -46
106 -82 166 -88 48 -5 57 -2 85 21 18 15 56 68 85 119 63 111 191 295 292 420
100 124 336 356 336 330 0 -5 -34 -78 -75 -162 -85 -173 -108 -236 -125 -343
-11 -69 -11 -79 8 -120 13 -31 35 -56 67 -78 86 -59 157 -50 286 36 93 61 225
195 269 272 19 34 38 62 41 62 4 0 10 -12 13 -26 19 -76 157 -167 254 -168
190 -2 382 235 401 494 l6 85 65 6 c36 4 66 6 68 4 1 -1 -5 -22 -14 -46 -48
-134 -47 -233 1 -329 26 -52 42 -67 108 -105 63 -36 137 -33 223 10 77 39 205
167 268 267 49 80 156 303 156 327 0 9 7 11 23 7 12 -4 48 -10 79 -13 l57 -6
-21 -41 c-17 -32 -22 -60 -22 -131 -1 -117 22 -169 97 -217 45 -29 60 -33 117
-33 107 0 194 58 278 183 35 52 52 65 52 38 0 -7 17 -39 37 -70 92 -139 279
-197 475 -147 172 44 307 129 483 306 188 187 274 305 275 373 0 30 -39 82
-62 82 -9 0 -62 -40 -115 -89 -255 -233 -470 -393 -598 -445 -95 -39 -218 -48
-255 -18 -23 19 -25 27 -25 104 l0 83 75 5 c196 15 322 123 337 288 5 54 2 68
-22 116 -35 68 -68 101 -124 121 -59 20 -110 19 -173 -5 -129 -48 -252 -204
-309 -390 -19 -63 -28 -76 -89 -132 -38 -35 -87 -74 -111 -87 l-42 -23 25 43
c14 24 55 93 91 154 37 60 67 120 67 132 0 13 -11 41 -25 62 -18 30 -37 44
-80 60 -94 35 -128 28 -220 -48 -51 -42 -137 -81 -178 -81 -23 0 -67 47 -67
70 0 13 -68 44 -132 60 -78 20 -88 8 -147 -174 -27 -85 -62 -178 -77 -208 -41
-80 -139 -217 -149 -207 -2 2 3 36 11 74 18 84 58 174 108 239 20 26 36 57 36
68 0 48 -76 113 -152 132 -45 10 -121 -13 -233 -70 -58 -30 -126 -59 -150 -63
-40 -8 -46 -6 -71 20 -38 39 -119 72 -184 73 l-55 1 -28 -55 c-24 -47 -33 -57
-76 -73 -71 -26 -150 -114 -205 -230 -40 -84 -75 -194 -77 -243 0 -17 -1 -16
-9 4 -18 43 -28 38 -220 -100 -58 -42 -107 -75 -109 -73 -8 8 151 319 218 425
87 138 147 260 156 317 8 48 -18 117 -59 158 -32 32 -96 34 -188 5 -107 -33
-294 -167 -467 -334 l-93 -91 55 110 c84 168 129 284 134 346 5 49 2 62 -22
103 -15 26 -41 54 -58 62 -103 54 -286 -60 -543 -337 -49 -52 -90 -95 -92 -93
-2 1 20 53 48 115 72 158 100 243 107 320 5 60 3 69 -22 107 -38 57 -83 77
-143 62 -95 -23 -235 -122 -437 -308 -60 -55 -111 -100 -112 -98 -2 2 49 142
112 311 63 170 115 313 115 317 0 4 -12 8 -26 8 -23 0 -25 3 -20 25 l6 25
-312 0 -313 0 -245 -667z m1299 367 c21 0 61 -51 61 -78 0 -59 -42 -189 -111
-346 -120 -271 -139 -316 -129 -316 5 0 79 75 165 168 207 222 317 320 417
371 96 49 146 54 183 16 21 -20 25 -34 25 -85 0 -71 -30 -150 -136 -363 -71
-140 -118 -256 -109 -265 3 -3 76 64 162 150 147 143 305 273 407 333 105 61
223 82 267 46 21 -17 24 -28 24 -83 0 -77 -34 -154 -151 -339 -88 -141 -191
-349 -227 -459 -14 -41 -23 -76 -22 -78 5 -5 80 44 211 139 163 116 174 122
174 90 0 -43 -75 -166 -148 -243 -138 -145 -255 -218 -348 -218 -62 0 -95 22
-118 80 -30 75 0 190 106 415 92 196 120 263 116 282 -9 41 -222 -133 -364
-298 -135 -157 -279 -358 -354 -494 -51 -92 -79 -124 -116 -134 -59 -16 -152
19 -173 66 -28 62 -5 124 237 623 97 200 148 328 140 352 -2 6 -40 -20 -84
-59 -229 -203 -459 -486 -760 -938 -85 -126 -160 -238 -168 -248 -20 -25 -69
-21 -135 13 -61 30 -76 49 -65 83 4 12 112 205 241 430 129 225 281 503 338
617 98 198 167 372 152 386 -16 16 -107 -64 -340 -300 -265 -267 -479 -514
-688 -793 -71 -95 -141 -181 -156 -193 -43 -34 -173 -19 -173 20 0 53 235 365
521 691 266 302 679 710 852 840 113 85 216 135 255 123 8 -2 17 -4 21 -4z
m3941 -212 c65 -33 90 -76 90 -153 0 -34 -5 -77 -12 -96 -40 -118 -165 -199
-318 -205 -84 -4 -88 -7 -89 -84 -1 -63 16 -116 49 -153 26 -29 33 -32 104
-35 183 -10 384 112 784 475 56 51 107 93 112 93 18 0 10 -60 -14 -108 -45
-90 -291 -347 -427 -447 -203 -150 -439 -199 -604 -126 -85 37 -151 138 -162
245 l-6 55 -67 -102 c-107 -162 -181 -216 -293 -217 -72 0 -107 19 -138 74
-20 34 -24 55 -23 126 0 74 4 94 32 154 18 38 32 72 32 75 0 4 -44 6 -97 6
-54 0 -108 4 -119 8 -18 6 -23 3 -29 -20 -13 -53 -135 -295 -180 -359 -96
-135 -221 -234 -322 -254 -183 -38 -273 156 -188 405 15 44 33 90 41 103 17
27 19 27 -81 2 -44 -11 -95 -20 -112 -20 l-33 0 0 -53 c0 -78 -33 -196 -80
-287 -118 -225 -333 -307 -468 -177 -45 43 -62 87 -62 161 0 193 152 463 280
497 42 11 47 17 73 72 l27 60 49 -6 c61 -7 145 -49 167 -82 15 -23 21 -25 63
-20 26 4 98 33 169 68 103 51 133 62 186 65 67 4 105 -8 139 -46 21 -23 15
-42 -30 -96 -38 -45 -73 -121 -94 -204 -22 -86 -26 -192 -7 -192 22 0 124 115
166 186 46 79 76 154 122 299 34 109 53 145 75 145 8 0 44 -10 81 -22 57 -18
69 -26 80 -54 17 -40 49 -64 85 -64 48 0 136 41 195 91 32 27 73 52 91 55 45
8 140 -23 160 -53 14 -21 13 -27 -11 -76 -14 -28 -54 -98 -89 -155 -63 -101
-96 -180 -83 -201 14 -23 176 80 252 161 30 31 48 63 64 113 91 285 307 455
470 373z"/>
<path d="M8024 2298 c-45 -41 -104 -121 -104 -141 0 -18 94 3 131 29 48 33 89
107 73 131 -20 33 -50 27 -100 -19z m79 -7 c-4 -34 -43 -79 -88 -101 -58 -28
-69 -26 -51 8 19 37 114 125 129 119 7 -2 11 -14 10 -26z"/>
<path d="M5852 1895 c-69 -58 -132 -197 -132 -289 0 -56 10 -69 45 -60 44 11
108 81 133 148 40 104 39 226 -2 226 -8 0 -28 -11 -44 -25z m53 -25 c13 -61
-25 -195 -72 -251 -28 -32 -77 -62 -87 -52 -22 23 14 175 56 238 27 38 80 95
89 95 4 0 10 -14 14 -30z"/>
<path d="M7608 2621 c-48 -31 -98 -101 -98 -139 0 -59 74 -122 143 -122 44 0
114 50 133 95 27 66 13 143 -35 183 -27 22 -93 14 -143 -17z m142 -6 c18 -21
7 -96 -19 -138 -27 -44 -97 -83 -134 -73 -39 9 -67 41 -67 74 0 39 51 107 97
131 46 24 106 27 123 6z"/>
</g>
</svg>
